<?xml version="1.0" encoding="UTF-8" standalone="no"?>
<!DOCTYPE svg PUBLIC "-//W3C//DTD SVG 20010904//EN" "http://www.w3.org/TR/2001/REC-SVG-20010904/DTD/svg10.dtd">
<svg version="1.0" xmlns="http://www.w3.org/2000/svg" width="900.000000pt" height="516.000000pt" viewBox="0 0 900.000000 516.000000" preserveAspectRatio="xMidYMid meet">
<metadata>
Created by potrace 1.10, written by Peter Selinger 2001-2011
</metadata>
<g transform="translate(0.000000,516.000000) scale(0.100000,-0.100000)" fill="#000000" stroke="none">
<path d="M3575 5070 c-16 -4 -50 -8 -73 -9 -61 -1 -250 -47 -320 -77 -18 -8 -40 -14 -48 -14 -9 0 -28 -6 -42 -13 -15 -8 -45 -22 -67 -32 -92 -41 -115 -53 -210 -109 -357 -211 -629 -530 -794 -931 -71 -170 -131 -469 -131 -641 0 -55 -13 -64 -75 -54 -27 5 -104 9 -170 9 -356 2 -706 -122 -1005 -358 -91 -71 -243 -236 -305 -330 -249 -381 -329 -796 -238 -1231 19 -88 53 -201 65 -214 4 -6 8 -16 8 -23 0 -19 66 -157 112 -231 61 -100 152 -216 234 -297 65 -66 246 -211 284 -228 8 -4 31 -17 50 -28 113 -67 191 -100 377 -160 39 -12 112 -26 213 -40 41 -5 94 -14 118 -20 52 -11 862 -12 862 -1 0 5 -17 17 -37 27 -87 42 -100 49 -131 78 -71 68 -102 176 -83 290 7 39 18 87 23 106 11 35 33 128 47 196 11 53 30 128 47 191 8 28 14 69 14 92 0 35 -4 43 -34 61 -39 24 -99 27 -136 6 -45 -25 -83 -19 -123 22 -64 63 -46 135 45 184 36 19 58 22 138 22 110 0 158 -17 232 -83 72 -63 92 -108 92 -215 0 -54 -6 -110 -16 -140 -8 -27 -23 -86 -33 -130 -9 -44 -23 -102 -30 -130 -30 -117 -36 -143 -46 -204 -14 -81 -4 -104 55 -133 40 -19 49 -20 87 -9 47 14 99 65 99 96 0 11 -7 40 -16 65 -25 70 -21 258 6 335 80 224 176 338 525 620 87 70 146 128 189 185 57 77 71 105 91 185 20 81 17 125 -20 268 -14 54 -25 117 -25 140 0 45 29 155 51 197 31 57 93 131 137 164 49 36 58 53 102 194 26 82 51 108 97 98 34 -8 51 -33 67 -95 13 -53 40 -67 56 -29 23 57 70 76 103 43 13 -13 37 -115 37 -158 0 -10 28 -46 63 -80 39 -41 69 -82 81 -113 29 -73 110 -173 142 -174 6 0 21 -12 35 -26 21 -22 24 -35 23 -92 -2 -155 -99 -237 -332 -284 -147 -29 -172 -59 -138 -169 73 -232 95 -450 62 -607 -47 -223 -46 -432 2 -607 6 -22 14 -53 17 -68 5 -23 17 -34 69 -57 95 -43 151 -118 165 -220 l6 -45 45 0 45 0 -3 53 c-6 95 -63 187 -154 247 -69 46 -88 67 -88 94 0 14 -7 49 -16 76 -24 73 -24 374 0 470 23 93 24 373 1 458 -25 95 -22 107 38 158 28 25 66 54 82 64 17 11 64 45 105 76 41 31 93 67 115 81 62 39 229 202 269 262 43 65 78 134 100 196 41 114 54 158 61 197 3 22 12 49 19 58 11 16 17 13 64 -32 28 -27 77 -62 109 -78 50 -26 67 -29 142 -28 122 1 184 32 244 123 32 47 20 162 -29 278 -8 18 -14 39 -14 47 0 8 -6 29 -14 47 -8 18 -24 64 -36 102 -11 38 -25 77 -31 87 -12 23 -35 24 -47 3 -9 -16 -7 -28 23 -139 7 -27 21 -79 30 -115 10 -36 24 -87 33 -114 8 -27 15 -74 16 -104 0 -51 -2 -57 -38 -88 -28 -25 -51 -34 -91 -39 -62 -8 -129 1 -165 23 -48 30 -112 97 -136 144 -21 42 -24 60 -24 160 0 153 23 226 103 336 111 150 284 242 456 242 120 0 256 -47 355 -122 39 -30 55 -46 156 -154 25 -27 57 -56 71 -66 26 -16 119 -33 242 -44 56 -5 73 -10 96 -33 39 -38 55 -92 47 -159 -20 -171 -66 -229 -253 -321 -70 -35 -168 -83 -218 -108 -153 -76 -185 -121 -185 -260 1 -48 6 -119 12 -158 6 -42 11 -262 13 -545 2 -397 5 -490 19 -565 38 -205 66 -325 95 -414 17 -51 21 -56 69 -74 118 -45 182 -139 205 -302 2 -20 11 -20 727 -23 732 -4 949 3 1050 33 25 7 56 15 70 18 151 29 390 168 533 309 202 201 322 429 372 710 20 110 17 334 -5 423 -48 197 -52 209 -118 345 -45 91 -128 213 -200 294 -222 249 -577 406 -913 406 -109 0 -109 0 -109 76 0 155 -66 421 -147 593 -120 254 -336 502 -563 647 -65 41 -77 48 -160 88 -41 21 -88 43 -103 51 -16 8 -35 15 -42 15 -8 0 -29 6 -47 14 -42 18 -121 40 -223 62 -62 14 -128 18 -290 18 -212 0 -270 -6 -420 -49 -87 -25 -92 -26 -109 -19 -9 3 -16 10 -16 15 0 17 -96 167 -167 261 -94 123 -222 251 -344 343 -91 70 -208 146 -253 166 -12 5 -28 13 -36 19 -19 12 -133 63 -185 83 -22 8 -58 22 -80 30 -22 8 -67 22 -100 30 -33 9 -80 21 -105 28 -25 6 -76 16 -115 21 -95 12 -453 19 -490 8z"/>
<path d="M4700 1283 c-17 -7 -30 -23 -30 -39 0 -6 32 -42 71 -80 142 -138 161 -236 84 -419 -24 -57 -57 -130 -120 -269 -51 -112 -57 -136 -40 -163 9 -12 25 -23 36 -23 77 0 179 -120 179 -210 0 -51 2 -51 205 -48 l160 3 -3 45 c-1 25 -8 72 -16 105 -7 33 -21 105 -31 160 -9 55 -19 110 -21 123 -8 39 -30 35 -79 -13 -49 -47 -214 -135 -253 -135 -11 0 -25 7 -32 15 -7 8 -19 15 -27 15 -35 0 -29 18 82 265 7 17 26 59 42 95 43 94 58 191 42 271 -21 110 -70 193 -149 259 -48 40 -75 52 -100 43z"/>
<path d="M3255 1059 c-12 -19 5 -58 33 -76 39 -26 74 -62 102 -108 20 -33 25 -53 25 -115 0 -82 5 -71 -126 -270 -27 -41 -54 -84 -59 -95 -6 -11 -19 -33 -30 -50 -43 -65 -40 -76 27 -101 26 -9 63 -31 81 -48 36 -34 72 -105 72 -142 0 -19 5 -24 24 -24 48 0 54 8 45 53 -5 23 -18 61 -29 83 -22 45 -94 118 -129 129 -11 3 -21 9 -21 13 0 11 51 95 141 232 74 114 89 149 89 210 0 92 -34 165 -116 248 -52 52 -79 72 -97 72 -14 0 -29 -5 -32 -11z"/>
<path d="M5508 929 c-14 -8 -18 -24 -18 -74 0 -127 34 -391 66 -511 13 -50 14 -50 73 -68 32 -10 68 -27 79 -39 43 -48 72 -104 78 -149 5 -40 11 -49 30 -54 13 -3 34 -4 47 0 23 5 23 6 12 74 -22 126 -91 219 -184 245 -24 6 -47 19 -51 27 -23 45 -46 168 -81 442 -12 97 -24 123 -51 107z"/>
<path d="M3645 759 c-10 -31 4 -243 21 -317 8 -35 14 -75 14 -90 0 -15 9 -46 20 -69 16 -37 24 -43 57 -49 64 -10 124 -76 140 -154 8 -43 10 -45 47 -48 l39 -3 -5 48 c-10 97 -84 204 -151 219 -60 12 -66 25 -101 194 -8 41 -17 107 -20 145 -7 89 -23 145 -41 145 -7 0 -17 -10 -20 -21z"/>
<path d="M2795 110 c-16 -4 -40 -12 -52 -18 -12 -7 -32 -12 -45 -12 -13 0 -36 -7 -52 -15 -15 -8 -35 -15 -42 -15 -8 0 -14 -4 -14 -10 0 -6 74 -10 203 -10 l202 0 -25 20 c-14 11 -36 23 -50 26 -14 4 -34 12 -45 18 -32 20 -48 23 -80 16z"/>
</g>
</svg>